<svg t="1711871820101" class="icon" viewBox="0 0 1024 1024" version="1.1" xmlns="http://www.w3.org/2000/svg" p-id="3093" width="200" height="200"><path d="M672 1024c-64 0-115.2-12.8-160-40.533333l-2.133333 0C469.333333 1011.2 413.866667 1024 347.733333 1024c-61.866667 0-115.2-14.933333-157.866667-40.533333-51.2-29.866667-78.933333-76.8-78.933333-130.133333 0-10.666667 2.133333-23.466667 4.266667-34.133333-36.266667-21.333333-61.866667-61.866667-68.266667-113.066667-6.4-46.933333 0-100.266667 19.2-160C76.8 512 93.866667 469.333333 128 435.2c2.133333-27.733333 8.533333-55.466667 17.066667-78.933333C147.2 264.533333 183.466667 181.333333 251.733333 106.666667c72.533333-72.533333 160-106.666667 260.266667-106.666667 102.4 0 189.866667 36.266667 260.266667 106.666667 68.266667 68.266667 104.533333 153.6 106.666667 251.733333 10.666667 27.733333 14.933333 49.066667 17.066667 74.666667 23.466667 29.866667 49.066667 68.266667 64 115.2 19.2 59.733333 25.6 113.066667 19.2 160-6.4 55.466667-29.866667 93.866667-68.266667 113.066667 2.133333 10.666667 4.266667 21.333333 4.266667 32 0 51.2-25.6 96-78.933333 130.133333C793.6 1009.066667 738.133333 1024 672 1024zM480 898.133333l57.6 0 10.666667 8.533333c32 23.466667 70.4 34.133333 123.733333 34.133333 51.2 0 89.6-8.533333 119.466667-27.733333 36.266667-23.466667 40.533333-42.666667 40.533333-57.6 0-14.933333-2.133333-23.466667-10.666667-34.133333l-44.8-66.133333L853.333333 755.2c0 0 0 0 0 0l0 0 8.533333-2.133333c8.533333-2.133333 25.6-8.533333 29.866667-53.333333 4.266667-34.133333 0-74.666667-14.933333-121.6l0-2.133333c-8.533333-29.866667-25.6-59.733333-57.6-96l-10.666667-12.8L808.533333 448c0-21.333333-4.266667-40.533333-14.933333-66.133333l-2.133333-8.533333 0-8.533333c0-78.933333-27.733333-142.933333-81.066667-198.4C657.066667 113.066667 590.933333 85.333333 512 85.333333c-78.933333 0-145.066667 27.733333-200.533333 81.066667-53.333333 59.733333-81.066667 125.866667-81.066667 198.4l0 10.666667L226.133333 384c-8.533333 17.066667-12.8 38.4-12.8 61.866667l0 25.6-14.933333 12.8c-27.733333 23.466667-42.666667 57.6-51.2 85.333333-14.933333 46.933333-21.333333 87.466667-14.933333 121.6 4.266667 25.6 12.8 44.8 29.866667 53.333333 4.266667 0 8.533333 2.133333 12.8 4.266667 0 0 2.133333 0 2.133333 0l76.8 0-44.8 66.133333c-8.533333 10.666667-10.666667 21.333333-10.666667 34.133333 0 23.466667 12.8 42.666667 38.4 57.6l2.133333 2.133333c27.733333 19.2 66.133333 27.733333 113.066667 27.733333 53.333333 0 96-10.666667 121.6-32L480 898.133333z" p-id="3094"></path></svg>