<?xml version="1.0" standalone="no"?>
<!DOCTYPE svg PUBLIC "-//W3C//DTD SVG 20010904//EN"
 "http://www.w3.org/TR/2001/REC-SVG-20010904/DTD/svg10.dtd">
<svg version="1.0" xmlns="http://www.w3.org/2000/svg"
 width="270.000000pt" height="270.000000pt" viewBox="0 0 270.000000 270.000000"
 preserveAspectRatio="xMidYMid meet">
<metadata>
Created by potrace 1.14, written by Peter Selinger 2001-2017
</metadata>
<g transform="translate(0.000000,270.000000) scale(0.100000,-0.100000)"
fill="#000000" stroke="none">
<path d="M949 2600 c-49 -26 -104 -92 -123 -148 -23 -66 -20 -169 5 -237 12
-31 19 -58 17 -59 -1 -2 -41 -26 -88 -54 -149 -89 -170 -129 -170 -316 0 -87
4 -120 19 -153 33 -71 46 -74 313 -71 l233 3 140 240 141 240 259 0 260 0 0
-25 c0 -14 -47 -116 -105 -227 l-105 -202 -134 -3 c-97 -2 -136 -7 -139 -15
-3 -10 31 -13 145 -13 l149 0 27 55 27 55 59 0 c55 0 60 -2 69 -27 46 -127
102 -286 102 -289 0 -2 -328 -4 -730 -4 -642 0 -730 -2 -730 -15 0 -13 90 -15
750 -15 444 0 750 4 750 9 0 5 -29 89 -64 188 l-63 178 -62 3 c-33 2 -61 4
-61 6 0 2 36 73 79 158 120 232 124 228 -224 228 -189 0 -256 -3 -269 -13 -10
-7 -79 -118 -155 -247 l-137 -235 -222 -3 -223 -2 -30 29 -29 29 0 149 c0 130
2 152 20 181 20 32 90 83 182 132 l47 24 23 -21 c32 -31 90 -53 135 -53 42 0
111 28 132 53 19 24 26 22 102 -23 71 -42 89 -48 89 -27 0 6 -32 30 -70 52
-38 22 -70 42 -70 45 0 3 9 30 21 60 28 72 23 204 -8 266 -27 50 -78 102 -120
120 -46 20 -121 17 -164 -6z m185 -44 c108 -82 129 -270 44 -387 -32 -44 -94
-78 -142 -79 -43 0 -111 36 -141 75 -77 101 -73 268 8 359 46 52 83 68 144 63
37 -2 62 -11 87 -31z"/>
<path d="M1437 2343 c-4 -3 -7 -46 -7 -95 l0 -88 39 0 c51 0 64 18 66 92 1 48
-2 65 -17 80 -18 18 -68 25 -81 11z m60 -34 c16 -16 5 -39 -18 -39 -12 0 -19
7 -19 18 0 31 17 41 37 21z m6 -85 c11 -11 -5 -34 -24 -34 -12 0 -19 7 -19 20
0 19 28 28 43 14z"/>
<path d="M1596 2343 c-3 -3 -6 -46 -6 -95 l0 -89 50 3 c59 4 71 22 18 26 l-38
3 0 74 c0 68 -8 94 -24 78z"/>
<path d="M1742 2334 c-19 -13 -22 -24 -22 -78 0 -70 17 -96 63 -96 43 0 57 24
57 95 0 55 -3 66 -22 79 -12 9 -29 16 -38 16 -9 0 -26 -7 -38 -16z m56 -23 c9
-5 12 -25 10 -62 -3 -50 -5 -54 -28 -54 -23 0 -25 4 -28 48 -4 61 14 89 46 68z"/>
<path d="M1912 2334 c-19 -13 -22 -24 -22 -84 0 -58 3 -71 19 -80 53 -28 101
-1 101 56 0 29 -3 34 -24 34 -31 0 -42 -16 -20 -28 24 -14 10 -44 -18 -40 -20
3 -23 10 -26 59 -2 44 1 58 13 62 18 7 45 -1 45 -14 0 -5 7 -9 15 -9 8 0 15 6
15 14 0 17 -38 46 -60 46 -9 0 -26 -7 -38 -16z"/>
<path d="M130 1010 c0 -29 -1 -30 -50 -30 -27 0 -50 -4 -50 -10 0 -5 20 -10
45 -10 41 0 45 -2 36 -18 -5 -10 -28 -37 -51 -59 -22 -23 -36 -44 -31 -47 5
-3 30 17 55 45 l46 51 0 -61 c0 -34 4 -61 10 -61 6 0 10 25 10 56 l0 55 33
-25 c36 -28 47 -32 47 -16 0 5 -18 20 -40 32 -54 31 -52 48 5 48 25 0 45 5 45
10 0 6 -20 10 -45 10 -43 0 -45 1 -45 30 0 17 -4 30 -10 30 -5 0 -10 -13 -10
-30z"/>
<path d="M360 1010 c0 -29 -2 -30 -45 -30 -25 0 -45 -4 -45 -10 0 -5 18 -10
40 -10 22 0 40 -4 40 -9 0 -5 -23 -32 -51 -59 -28 -27 -46 -53 -41 -56 6 -3
31 17 56 45 l46 51 0 -61 c0 -34 4 -61 10 -61 6 0 10 28 10 64 l0 64 54 -56
c30 -31 58 -53 62 -49 4 4 -16 29 -44 56 -29 28 -52 55 -52 60 0 6 22 11 50
11 28 0 50 5 50 10 0 6 -27 10 -60 10 l-60 0 0 30 c0 17 -4 30 -10 30 -5 0
-10 -13 -10 -30z"/>
<path d="M698 1018 c-3 -21 -9 -23 -60 -23 -31 0 -60 -3 -64 -7 -4 -5 23 -8
59 -8 65 0 67 -1 67 -25 0 -14 5 -25 10 -25 6 0 10 11 10 25 0 25 1 25 80 25
78 0 80 -1 80 -24 0 -35 18 -42 22 -9 3 27 6 28 66 31 34 2 62 7 62 12 0 6
-28 9 -62 7 -59 -2 -63 0 -66 21 -4 29 -22 29 -22 -1 0 -22 -3 -23 -80 -22
-76 0 -80 1 -80 23 0 12 -4 22 -9 22 -5 0 -11 -10 -13 -22z"/>
<path d="M1870 806 c0 -216 -1 -225 -20 -231 -11 -3 -24 -4 -29 -1 -12 8 -41
-4 -41 -16 0 -12 96 -6 108 6 4 4 8 111 10 237 3 202 1 229 -12 229 -14 0 -16
-28 -16 -224z"/>
<path d="M2240 911 c0 -126 -16 -243 -41 -300 -19 -44 -19 -59 -1 -47 21 12
44 105 55 219 l11 117 178 0 178 0 0 55 0 55 -190 0 -190 0 0 -99z m360 44 l0
-35 -170 0 -170 0 0 35 0 35 170 0 170 0 0 -35z"/>
<path d="M1309 961 c-82 -17 -149 -81 -170 -164 -30 -122 65 -219 134 -137 32
37 62 117 77 201 16 92 13 89 58 77 94 -24 147 -130 108 -221 -19 -47 -79 -96
-126 -103 -54 -9 -52 -28 2 -21 52 7 115 51 139 97 27 49 25 126 -4 181 -36
68 -132 108 -218 90z m12 -123 c-39 -152 -86 -214 -131 -173 -57 52 -42 166
31 228 45 39 112 62 117 40 2 -7 -6 -50 -17 -95z"/>
<path d="M805 914 c-9 -14 -35 -43 -57 -65 -23 -22 -38 -42 -34 -46 3 -4 19 6
36 22 l29 28 42 -33 c39 -31 40 -34 23 -47 -10 -8 -45 -23 -76 -35 -32 -11
-58 -25 -58 -30 0 -12 30 -3 109 33 l65 30 74 -37 c50 -25 77 -33 84 -26 7 7
3 12 -13 17 -13 4 -47 18 -75 32 l-52 25 50 48 c28 27 47 53 43 59 -3 7 -42
11 -93 11 -67 0 -83 3 -74 12 14 14 16 28 3 28 -5 0 -16 -12 -26 -26z m130
-74 c-21 -22 -43 -40 -48 -40 -13 0 -87 60 -87 71 0 5 39 9 87 9 l87 0 -39
-40z"/>
<path d="M610 913 c0 -14 70 -54 81 -47 6 3 -6 17 -28 30 -40 25 -53 29 -53
17z"/>
<path d="M1716 843 c-10 -32 -31 -81 -47 -110 -16 -29 -25 -54 -20 -57 5 -3
13 0 19 7 39 48 99 217 78 217 -7 0 -20 -26 -30 -57z"/>
<path d="M2010 897 c0 -3 17 -41 39 -84 21 -43 44 -95 51 -116 7 -24 16 -35
22 -29 15 15 -73 221 -100 230 -7 2 -12 1 -12 -1z"/>
<path d="M2270 840 c0 -6 27 -10 60 -10 l60 0 -23 -37 c-17 -27 -32 -38 -52
-40 -61 -5 -33 -13 43 -13 l82 0 0 -30 0 -30 -72 0 c-39 0 -68 -3 -65 -7 4 -3
36 -5 72 -4 l65 2 0 -40 0 -41 -95 0 c-57 0 -95 -4 -95 -10 0 -6 75 -10 205
-10 130 0 205 4 205 10 0 6 -40 10 -101 10 l-100 0 3 38 3 37 72 0 c40 1 75 4
79 8 4 4 -29 7 -74 7 l-82 0 0 30 c0 24 4 30 23 31 12 0 39 3 61 5 27 3 44 0
56 -11 11 -10 20 -12 24 -7 8 13 -86 82 -110 82 -14 0 -9 -6 16 -23 l35 -22
-53 -3 c-29 -2 -73 -2 -97 0 l-44 3 20 33 21 32 114 0 c69 0 114 4 114 10 0 6
-68 10 -185 10 -117 0 -185 -4 -185 -10z"/>
<path d="M209 791 c-14 -14 -57 -44 -94 -66 -70 -41 -76 -61 -7 -26 l39 20 40
-22 c22 -12 51 -29 64 -39 l24 -16 -45 -20 c-25 -12 -75 -28 -113 -38 -71 -17
-94 -40 -29 -28 84 16 193 61 245 102 40 32 97 99 97 113 0 5 -43 9 -95 9 -94
0 -107 4 -83 28 9 9 9 12 -2 11 -8 -1 -27 -13 -41 -28z m173 -55 c-20 -26 -76
-76 -85 -76 -3 0 -33 17 -67 37 -57 33 -61 38 -44 50 12 9 51 13 117 13 l98 0
-19 -24z"/>
<path d="M570 813 c0 -8 73 -53 84 -53 19 0 0 23 -34 40 -43 22 -50 24 -50 13z"/>
<path d="M659 688 c-6 -13 -27 -42 -45 -65 -34 -41 -42 -63 -25 -63 9 0 101
131 101 143 0 16 -20 5 -31 -15z"/>
<path d="M798 702 l-38 -3 0 -75 c0 -43 4 -74 10 -74 6 0 10 7 10 15 0 12 17
15 95 15 80 0 95 -2 95 -16 0 -9 5 -14 12 -12 12 4 19 93 11 135 -4 20 -10 21
-81 20 -43 -1 -94 -3 -114 -5z m172 -62 l0 -51 -92 3 -93 3 -3 48 -3 47 95 0
96 0 0 -50z"/>
<path d="M1584 319 c-26 -29 -35 -179 -10 -179 15 0 18 10 19 78 1 14 7 22 19
22 10 0 18 7 18 15 0 8 -7 15 -15 15 -8 0 -15 7 -15 15 0 9 7 18 15 21 19 8
20 34 2 34 -8 0 -22 -9 -33 -21z"/>
<path d="M860 301 c0 -27 -4 -31 -26 -31 -54 0 -87 -47 -64 -91 25 -46 104
-42 116 6 9 37 0 138 -13 143 -9 2 -13 -7 -13 -27z m-5 -90 c0 -34 -30 -51
-51 -29 -25 24 -10 60 24 56 21 -2 27 -8 27 -27z"/>
<path d="M1823 323 c-9 -3 -13 -32 -13 -94 0 -82 1 -89 20 -89 19 0 20 7 20
95 0 52 -3 95 -7 94 -5 0 -14 -3 -20 -6z"/>
<path d="M1897 323 c-4 -3 -7 -46 -7 -95 0 -72 3 -88 15 -88 12 0 15 17 15 95
0 87 -5 107 -23 88z"/>
<path d="M956 255 c-26 -20 -36 -115 -12 -115 12 0 16 10 16 40 0 29 5 43 20
52 22 14 27 38 8 38 -7 0 -22 -7 -32 -15z"/>
<path d="M1036 254 c-19 -19 -21 -64 -3 -88 12 -16 70 -26 83 -13 12 11 -8 28
-26 22 -10 -3 -21 -1 -25 5 -4 6 11 10 40 10 39 0 46 3 41 16 -3 9 -6 19 -6
24 0 35 -76 53 -104 24z m69 -24 c4 -6 -5 -10 -19 -10 -14 0 -26 5 -26 10 0 6
9 10 19 10 11 0 23 -4 26 -10z"/>
<path d="M1186 254 c-20 -20 -20 -68 0 -88 18 -18 16 -18 72 -21 l42 -3 0 64
0 64 -49 0 c-32 0 -55 -6 -65 -16z m74 -33 c7 -15 6 -24 -6 -36 -9 -9 -21 -14
-27 -12 -18 6 -31 33 -24 51 9 22 44 20 57 -3z"/>
<path d="M1335 261 c-6 -10 3 -112 10 -120 10 -10 21 18 19 49 -2 31 18 56 36
45 5 -3 10 -24 10 -45 0 -39 16 -62 29 -41 4 6 6 24 5 41 -2 31 18 56 36 45 5
-3 10 -24 10 -45 0 -39 16 -62 29 -41 11 17 5 89 -8 105 -13 15 -167 21 -176
7z"/>
<path d="M1665 250 c-21 -24 -23 -66 -3 -87 15 -14 107 -27 109 -14 6 24 8 80
4 99 -5 19 -12 22 -49 22 -30 0 -48 -6 -61 -20z m75 -26 c11 -13 10 -19 -8
-36 -17 -18 -23 -19 -36 -8 -16 13 -21 42 -9 53 11 12 40 7 53 -9z"/>
</g>
</svg>
